name Walk1.mot
datacolumns 19
datarows 30
range 2.61400000 2.64300000
endheader

                time	   L_ground_force_vx	   L_ground_force_vy	   L_ground_force_vz	   L_ground_force_px	   L_ground_force_py	   L_ground_force_pz	   R_ground_force_vx	   R_ground_force_vy	   R_ground_force_vz	   R_ground_force_px	   R_ground_force_py	   R_ground_force_pz	   L_ground_torque_x	   L_ground_torque_y	   L_ground_torque_z	   R_ground_torque_x	   R_ground_torque_y	   R_ground_torque_z	
          2.61400000	         -0.00000000	          0.00000000	         -0.00000000	         -0.00000000	          0.00000000	          0.00000000	         32.38405698	        133.36127729	         17.95504989	          0.64955793	          0.00000000	          0.13692100	          0.00000000	          0.00000000	          0.00000000	          0.00000000	         -5.22570713	          0.00000000	
          2.61500000	         -0.00000000	          0.00000000	         -0.00000000	         -0.00000000	          0.00000000	          0.00000000	         31.07133702	        127.08565863	         17.58949440	          0.64162061	          0.00000000	          0.13569051	          0.00000000	          0.00000000	          0.00000000	          0.00000000	         -4.96358893	          0.00000000	
          2.61600000	         -0.00000000	          0.00000000	         -0.00000000	         -0.00000000	          0.00000000	          0.00000000	         29.77375014	        120.97144688	         17.20635751	          0.63327437	          0.00000000	          0.13437344	          0.00000000	          0.00000000	          0.00000000	          0.00000000	         -4.70679357	          0.00000000	
          2.61700000	         -0.00000000	          0.00000000	         -0.00000000	         -0.00000000	          0.00000000	          0.00000000	         28.49265863	        115.01869128	         16.80695015	          0.62451456	          0.00000000	          0.13296737	          0.00000000	          0.00000000	          0.00000000	          0.00000000	         -4.45552034	          0.00000000	
          2.61800000	         -0.00000000	          0.00000000	         -0.00000000	         -0.00000000	          0.00000000	          0.00000000	         27.22940548	        109.22728339	         16.39261327	          0.61533767	          0.00000000	          0.13146999	          0.00000000	          0.00000000	          0.00000000	          0.00000000	         -4.20996201	          0.00000000	
          2.61900000	         -0.00000000	          0.00000000	         -0.00000000	         -0.00000000	          0.00000000	          0.00000000	         25.98530812	        103.59696622	         15.96471220	          0.60574142	          0.00000000	          0.12987922	          0.00000000	          0.00000000	          0.00000000	          0.00000000	         -3.97030371	          0.00000000	
          2.62000000	         -0.00000000	          0.00000000	          0.00000000	         -0.00000000	          0.00000000	          0.00000000	         24.76165208	         98.12734277	         15.52463049	          0.59572485	          0.00000000	          0.12819316	          0.00000000	          0.00000000	          0.00000000	          0.00000000	         -3.73672200	          0.00000000	
          2.62100000	         -0.00000000	          0.00000000	          0.00000000	         -0.00000000	          0.00000000	          0.00000000	         23.55968453	         92.81788412	         15.07376359	          0.58528848	          0.00000000	          0.12641020	          0.00000000	          0.00000000	          0.00000000	          0.00000000	         -3.50938406	          0.00000000	
          2.62200000	         -0.00000000	          0.00000000	          0.00000000	         -0.00000000	          0.00000000	          0.00000000	         22.38060786	         87.66793735	         14.61351261	          0.57443437	          0.00000000	          0.12452900	          0.00000000	          0.00000000	          0.00000000	          0.00000000	         -3.28844692	          0.00000000	
          2.62300000	         -0.00000000	         -0.00000000	          0.00000000	         -0.00000000	          0.00000000	          0.00000000	         21.22557345	         82.67673353	         14.14527842	          0.56316632	          0.00000000	          0.12254856	          0.00000000	          0.00000000	          0.00000000	          0.00000000	         -3.07405662	          0.00000000	
          2.62400000	         -0.00000000	         -0.00000000	          0.00000000	         -0.00000000	          0.00000000	          0.00000000	         20.09567551	         77.84339614	         13.67045623	          0.55148993	          0.00000000	          0.12046824	          0.00000000	          0.00000000	          0.00000000	          0.00000000	         -2.86634718	          0.00000000	
          2.62500000	         -0.00000000	         -0.00000000	          0.00000000	         -0.00000000	          0.00000000	          0.00000000	         18.99194524	         73.16694983	         13.19043068	          0.53941280	          0.00000000	          0.11828783	          0.00000000	          0.00000000	          0.00000000	          0.00000000	         -2.66543958	          0.00000000	
          2.62600000	         -0.00000000	         -0.00000000	          0.00000000	         -0.00000000	          0.00000000	          0.00000000	         17.91534546	         68.64632902	         12.70657093	          0.52694467	          0.00000000	          0.11600756	          0.00000000	          0.00000000	          0.00000000	          0.00000000	         -2.47144081	          0.00000000	
          2.62700000	         -0.00000000	         -0.00000000	          0.00000000	         -0.00000000	          0.00000000	          0.00000000	         16.86676576	         64.28038581	         12.22022579	          0.51409751	          0.00000000	          0.11362816	          0.00000000	          0.00000000	          0.00000000	          0.00000000	         -2.28444294	          0.00000000	
          2.62800000	         -0.00000000	         -0.00000000	          0.00000000	         -0.00000000	          0.00000000	          0.00000000	         15.84701848	         60.06789690	         11.73271844	          0.50088576	          0.00000000	          0.11115091	          0.00000000	          0.00000000	          0.00000000	          0.00000000	         -2.10452231	          0.00000000	
          2.62900000	         -0.00000000	         -0.00000000	          0.00000000	         -0.00000000	          0.00000000	          0.00000000	         14.85683556	         56.00756927	         11.24534099	          0.48732638	          0.00000000	          0.10857768	          0.00000000	          0.00000000	          0.00000000	          0.00000000	         -1.93173866	          0.00000000	
          2.63000000	         -0.00000000	         -0.00000000	          0.00000000	         -0.00000000	          0.00000000	          0.00000000	         13.89686628	         52.09804498	         10.75934907	          0.47343909	          0.00000000	          0.10591099	          0.00000000	          0.00000000	          0.00000000	          0.00000000	         -1.76613423	          0.00000000	
          2.63100000	         -0.00000000	         -0.00000000	          0.00000000	         -0.00000000	          0.00000000	          0.00000000	         12.96767569	         48.33790556	         10.27595678	          0.45924640	          0.00000000	          0.10315407	          0.00000000	          0.00000000	          0.00000000	          0.00000000	         -1.60773272	          0.00000000	
          2.63200000	         -0.00000000	         -0.00000000	          0.00000000	         -0.00000000	          0.00000000	          0.00000000	         12.06974358	         44.72567637	          9.79633231	          0.44477380	          0.00000000	          0.10031088	          0.00000000	          0.00000000	          0.00000000	          0.00000000	         -1.45653819	          0.00000000	
          2.63300000	         -0.00000000	         -0.00000000	          0.00000000	         -0.00000000	          0.00000000	          0.00000000	         11.20346395	         41.25983189	          9.32159438	          0.43004981	          0.00000000	          0.09738625	          0.00000000	          0.00000000	          0.00000000	          0.00000000	         -1.31253410	          0.00000000	
          2.63400000	         -0.00000000	         -0.00000000	          0.00000000	         -0.00000000	          0.00000000	          0.00000000	         10.36914447	         37.93880163	          8.85280922	          0.41510608	          0.00000000	          0.09438586	          0.00000000	          0.00000000	          0.00000000	          0.00000000	         -1.17568228	          0.00000000	
          2.63500000	         -0.00000000	         -0.00000000	          0.00000000	         -0.00000000	          0.00000000	          0.00000000	          9.56700611	         34.76097595	          8.39098787	          0.39997746	          0.00000000	          0.09131638	          0.00000000	          0.00000000	          0.00000000	          0.00000000	         -1.04592233	          0.00000000	
          2.63600000	         -0.00000000	         -0.00000000	          0.00000000	         -0.00000000	          0.00000000	          0.00000000	          8.79718267	         31.72470923	          7.93708361	          0.38470204	          0.00000000	          0.08818552	          0.00000000	          0.00000000	          0.00000000	          0.00000000	         -0.92317116	          0.00000000	
          2.63700000	         -0.00000000	         -0.00000000	          0.00000000	         -0.00000000	          0.00000000	          0.00000000	          8.05972054	         28.82831736	          7.49198927	          0.36932119	          0.00000000	          0.08500209	          0.00000000	          0.00000000	          0.00000000	          0.00000000	         -0.80732287	          0.00000000	
          2.63800000	         -0.00000000	         -0.00000000	          0.00000000	         -0.00000000	          0.00000000	          0.00000000	          7.35457862	         26.07006626	          7.05653425	          0.35387968	          0.00000000	          0.08177613	          0.00000000	          0.00000000	          0.00000000	          0.00000000	         -0.69824914	          0.00000000	
          2.63900000	         -0.00000000	         -0.00000000	          0.00000000	         -0.00000000	          0.00000000	          0.00000000	          6.68162866	         23.44814917	          6.63148121	          0.33842567	          0.00000000	          0.07851896	          0.00000000	          0.00000000	          0.00000000	          0.00000000	         -0.59580030	          0.00000000	
          2.64000000	         -0.00000000	         -0.00000000	          0.00000000	         -0.00000000	          0.00000000	          0.00000000	          6.04065527	         20.96064423	          6.21752095	          0.32301029	          0.00000000	          0.07524306	          0.00000000	          0.00000000	          0.00000000	          0.00000000	         -0.49980769	          0.00000000	
          2.64100000	         -0.00000000	         -0.00000000	          0.00000000	         -0.00000000	          0.00000000	          0.00000000	          5.43135494	         18.60544437	          5.81526436	          0.30768551	          0.00000000	          0.07196152	          0.00000000	          0.00000000	          0.00000000	          0.00000000	         -0.41008768	          0.00000000	
          2.64200000	         -0.00000000	         -0.00000000	          0.00000000	         -0.00000000	          0.00000000	          0.00000000	          4.85333604	         16.38018775	          5.42523477	          0.29250104	          0.00000000	          0.06868707	          0.00000000	          0.00000000	          0.00000000	          0.00000000	         -0.32644641	          0.00000000	
          2.64300000	         -0.00000000	         -0.00000000	          0.00000000	         -0.00000000	          0.00000000	          0.00000000	          4.30612308	         14.28223481	          5.04786642	          0.27750232	          0.00000000	          0.06543147	          0.00000000	          0.00000000	          0.00000000	          0.00000000	         -0.24868311	          0.00000000	
